<svg width="1280" height="720" viewBox="0 0 1280 720" fill="none" xmlns="http://www.w3.org/2000/svg">
  <rect width="1280" height="720" rx="24" fill="#0A111A"/>
  <rect x="64" y="64" width="1152" height="592" rx="20" fill="#101A28" stroke="#2C3C56"/>
  <rect x="108" y="118" width="300" height="30" rx="8" fill="#1A2A42"/>
  <rect x="108" y="172" width="430" height="16" rx="6" fill="#2A3F5E"/>
  <rect x="108" y="202" width="360" height="16" rx="6" fill="#203552"/>
  <rect x="108" y="260" width="460" height="340" rx="14" fill="#111D2D" stroke="#2A3D59"/>
  <rect x="140" y="300" width="396" height="16" rx="6" fill="#2D466B"/>
  <rect x="140" y="336" width="320" height="16" rx="6" fill="#253A5A"/>
  <rect x="140" y="408" width="190" height="120" rx="10" fill="#1C2F49"/>
  <rect x="346" y="408" width="190" height="120" rx="10" fill="#1A2A42"/>
  <rect x="620" y="260" width="530" height="340" rx="14" fill="#0E1827" stroke="#2A3D59"/>
  <path d="M670 520C730 455 790 480 845 425C900 370 955 392 1010 340" stroke="#6BE1C3" stroke-width="8" stroke-linecap="round"/>
  <circle cx="1010" cy="340" r="10" fill="#6BE1C3"/>
  <text x="666" y="314" fill="#CFE0FF" font-family="Inter, Arial, sans-serif" font-size="26" font-weight="600">AI Study Plan</text>
</svg>