<svg width="1280" height="720" viewBox="0 0 1280 720" fill="none" xmlns="http://www.w3.org/2000/svg">
  <rect width="1280" height="720" rx="24" fill="#0A0F17"/>
  <rect x="72" y="72" width="1136" height="576" rx="20" fill="#101A28" stroke="#2B3E59"/>
  <rect x="120" y="120" width="180" height="38" rx="10" fill="#1A2A42"/>
  <rect x="930" y="120" width="230" height="38" rx="10" fill="#16263C"/>
  <text x="968" y="146" fill="#D7E5FF" font-family="Inter, Arial, sans-serif" font-size="20" font-weight="700">43:18</text>
  <rect x="120" y="190" width="1040" height="410" rx="14" fill="#0F1A2A" stroke="#2A3D59"/>
  <rect x="160" y="236" width="760" height="20" rx="8" fill="#2A3E5E"/>
  <rect x="160" y="270" width="640" height="20" rx="8" fill="#233654"/>
  <rect x="160" y="322" width="470" height="58" rx="12" fill="#132337" stroke="#2A3D59"/>
  <rect x="160" y="394" width="470" height="58" rx="12" fill="#132337" stroke="#2A3D59"/>
  <rect x="160" y="466" width="470" height="58" rx="12" fill="#132337" stroke="#2A3D59"/>
  <rect x="160" y="538" width="470" height="58" rx="12" fill="#16324D" stroke="#6BE1C3"/>
  <path d="M202 566l18 18 34-34" stroke="#6BE1C3" stroke-width="7" stroke-linecap="round" stroke-linejoin="round"/>
  <rect x="958" y="236" width="162" height="290" rx="12" fill="#121F31"/>
  <rect x="982" y="268" width="114" height="10" rx="5" fill="#2A3D59"/>
  <rect x="982" y="292" width="114" height="10" rx="5" fill="#2A3D59"/>
  <rect x="982" y="316" width="114" height="10" rx="5" fill="#2A3D59"/>
</svg>