<svg width="1280" height="720" viewBox="0 0 1280 720" fill="none" xmlns="http://www.w3.org/2000/svg">
  <rect width="1280" height="720" rx="24" fill="#091018"/>
  <rect x="62" y="62" width="1156" height="596" rx="22" fill="#101A27" stroke="#2B3E59"/>
  <rect x="104" y="114" width="240" height="492" rx="14" fill="#0E1826" stroke="#263A56"/>
  <rect x="130" y="152" width="188" height="14" rx="6" fill="#2A3D5B"/>
  <rect x="130" y="184" width="140" height="14" rx="6" fill="#233755"/>
  <rect x="130" y="244" width="188" height="14" rx="6" fill="#2A3D5B"/>
  <rect x="130" y="276" width="160" height="14" rx="6" fill="#233755"/>
  <rect x="374" y="114" width="804" height="492" rx="14" fill="#0F1929" stroke="#2A3D59"/>
  <rect x="410" y="160" width="320" height="180" rx="12" fill="#142337"/>
  <rect x="746" y="160" width="396" height="80" rx="12" fill="#142337"/>
  <rect x="746" y="260" width="396" height="80" rx="12" fill="#142337"/>
  <rect x="410" y="360" width="732" height="210" rx="12" fill="#121F31"/>
  <circle cx="113" cy="113" r="0" fill="#000"/>
  <path d="M468 428h616" stroke="#2A3D59" stroke-width="2"/>
  <path d="M468 470h520" stroke="#2A3D59" stroke-width="2"/>
  <path d="M468 512h560" stroke="#2A3D59" stroke-width="2"/>
</svg>